<?xml version="1.0" standalone="no"?>
<!DOCTYPE svg PUBLIC "-//W3C//DTD SVG 20010904//EN"
 "http://www.w3.org/TR/2001/REC-SVG-20010904/DTD/svg10.dtd">
<svg version="1.0" xmlns="http://www.w3.org/2000/svg"
 width="1024.000000pt" height="1024.000000pt" viewBox="0 0 1024.000000 1024.000000"
 preserveAspectRatio="xMidYMid meet">

<g transform="translate(0.000000,1024.000000) scale(0.100000,-0.100000)"
fill="#000000" stroke="none">
<path d="M3 10160 c0 -47 2 -66 4 -42 2 23 2 61 0 85 -2 23 -4 4 -4 -43z"/>
<path d="M3 8840 c0 -25 2 -35 4 -22 2 12 2 32 0 45 -2 12 -4 2 -4 -23z"/>
<path d="M2565 6526 c-73 -34 -159 -117 -191 -184 -15 -31 -40 -69 -55 -83
-16 -15 -29 -29 -29 -32 0 -3 -5 -18 -11 -34 -26 -65 -2 -243 32 -243 5 0 21
-12 36 -26 24 -25 27 -25 77 -13 33 8 61 23 79 42 l27 30 58 -17 c78 -22 165
-20 232 5 30 11 65 23 78 26 21 5 22 11 22 89 0 81 1 84 30 106 17 12 30 26
30 30 0 14 -273 5 -278 -9 -2 -7 3 -13 11 -13 8 0 24 -8 36 -17 38 -31 43
-193 5 -179 -9 3 -12 1 -9 -4 4 -6 -15 -10 -49 -10 -46 0 -61 5 -97 33 -23 17
-51 49 -62 70 -41 80 -39 261 5 338 43 77 133 108 215 74 63 -26 99 -79 105
-155 2 -31 8 -45 18 -45 28 0 40 223 13 232 -7 3 -15 -7 -19 -21 -7 -31 -17
-32 -52 -8 -69 48 -177 56 -257 18z"/>
<path d="M3740 6535 c-54 -18 -146 -89 -183 -143 -38 -53 -61 -173 -41 -210 8
-15 14 -34 13 -42 0 -8 -5 -3 -11 13 -13 35 -22 28 -58 -42 -16 -32 -43 -70
-60 -85 -27 -23 -41 -26 -100 -26 -58 0 -71 3 -80 19 -6 12 -10 107 -10 240 0
238 -1 232 56 268 15 10 -2 12 -93 12 -104 1 -125 -4 -106 -23 4 -4 8 -82 8
-174 1 -92 5 -176 9 -187 6 -16 6 -17 -3 -5 -8 12 -11 7 -11 -22 0 -20 -3 -44
-7 -54 -5 -12 -3 -15 6 -9 10 6 12 0 6 -26 -4 -19 -11 -38 -16 -43 -5 -6 -9
-16 -9 -23 0 -10 45 -13 215 -13 l215 0 0 35 c0 37 8 43 28 23 10 -10 17 -10
32 0 15 9 26 10 40 2 12 -6 21 -7 25 0 3 6 22 -1 46 -15 54 -35 152 -59 211
-52 53 7 139 46 176 80 66 61 98 165 81 267 -17 107 -64 172 -162 221 -54 28
-155 34 -217 14z m169 -43 c95 -70 104 -378 13 -465 -38 -36 -82 -48 -129 -35
-50 13 -86 49 -115 112 -19 43 -23 68 -23 166 0 104 2 119 24 158 38 65 93 95
165 87 22 -2 51 -12 65 -23z m-401 -357 c-3 -3 -9 2 -12 12 -6 14 -5 15 5 6 7
-7 10 -15 7 -18z m5 -32 c-3 -7 -6 -13 -8 -13 -2 0 -5 6 -8 13 -3 8 1 14 8 14
7 0 11 -6 8 -14z m38 -5 c11 -21 11 -22 -4 -9 -10 7 -17 17 -17 22 0 15 9 10
21 -13z m-29 -60 c-7 -7 -12 -8 -12 -2 0 14 12 26 19 19 2 -3 -1 -11 -7 -17z
m78 2 c0 -5 -2 -10 -4 -10 -3 0 -8 5 -11 10 -3 6 -1 10 4 10 6 0 11 -4 11 -10z"/>
<path d="M4765 6542 c-1 -2 8 -14 21 -27 24 -24 24 -25 24 -252 0 -211 -2
-230 -20 -258 -11 -16 -20 -33 -20 -38 0 -10 210 -3 211 7 0 5 -10 14 -23 20
-17 8 -25 24 -30 56 -8 57 -8 239 0 351 6 79 9 88 37 112 l30 26 -113 3 c-63
2 -115 2 -117 0z"/>
<path d="M5281 6457 c-22 -52 -47 -112 -55 -134 -7 -21 -24 -61 -36 -89 -12
-27 -29 -65 -37 -84 -41 -94 -57 -122 -83 -150 l-28 -30 86 0 87 0 -29 24
c-29 22 -30 25 -18 62 22 71 34 78 121 82 46 3 87 -1 99 -7 13 -7 28 -33 38
-66 16 -51 16 -56 1 -73 -9 -10 -17 -22 -17 -25 0 -4 50 -7 110 -7 61 0 110 3
110 6 0 3 -15 20 -33 37 -25 24 -49 71 -95 187 -87 220 -149 355 -165 358 -10
2 -28 -29 -56 -91z m62 -179 c19 -48 17 -53 -17 -44 -19 5 -24 11 -18 24 6 16
7 16 10 0 2 -10 10 -18 18 -18 12 0 10 8 -6 40 -11 22 -16 40 -12 40 5 0 16
-19 25 -42z m-73 -42 c0 -7 8 -13 18 -13 63 1 80 -4 85 -23 5 -19 0 -20 -74
-20 l-79 0 15 36 c8 20 15 38 15 41 0 2 5 1 10 -2 6 -3 10 -12 10 -19z"/>
<path d="M5246 6213 c-6 -14 -5 -15 5 -6 7 7 10 15 7 18 -3 3 -9 -2 -12 -12z"/>
<path d="M5785 6535 c-16 -8 -45 -32 -62 -52 -28 -31 -33 -44 -33 -88 0 -98
23 -125 169 -206 77 -41 106 -82 97 -132 -11 -59 -87 -84 -160 -53 -42 18 -85
73 -93 120 -3 20 -11 36 -19 36 -9 0 -13 -26 -16 -97 -2 -54 -1 -102 3 -106 3
-4 18 2 32 13 15 12 27 18 27 13 0 -9 14 -11 123 -19 66 -5 84 -2 122 16 53
26 85 83 85 154 0 89 -46 143 -176 209 -59 30 -104 78 -104 112 0 29 43 65 77
65 61 0 131 -70 140 -140 3 -22 9 -40 14 -40 9 0 15 34 24 133 5 63 4 67 -15
67 -11 0 -20 -3 -20 -7 0 -5 -4 -14 -9 -21 -6 -10 -15 -9 -43 8 -49 28 -124
36 -163 15z"/>
<path d="M6302 6493 c-16 -32 -44 -101 -62 -153 -41 -122 -122 -294 -161 -342
l-30 -38 76 0 c75 0 93 10 55 30 -17 9 -18 13 -6 48 35 97 28 92 132 92 105 0
117 -6 135 -73 8 -31 8 -46 -1 -60 -6 -11 -8 -22 -5 -25 4 -4 76 -7 161 -7
154 0 185 8 130 33 -28 13 -36 46 -36 158 0 127 25 123 101 -18 24 -45 62
-101 84 -125 l40 -44 90 3 c85 3 88 4 63 17 -34 17 -34 28 -7 92 l22 50 100
-3 99 -3 19 -60 c17 -54 17 -61 2 -77 -14 -16 -6 -17 162 -20 97 -2 179 0 181
4 3 4 -6 12 -18 19 -36 19 -38 27 -38 142 l0 107 131 0 131 0 -3 -118 c-3 -82
-8 -124 -18 -135 -7 -10 -11 -17 -7 -17 44 -4 189 0 193 4 3 3 -6 11 -20 17
-34 16 -39 60 -35 303 l3 188 35 29 34 29 -117 0 c-64 0 -117 -2 -117 -5 0 -2
11 -15 25 -29 24 -24 25 -31 25 -131 l0 -105 -132 2 -133 3 -3 60 c-5 97 6
145 40 177 l30 28 -116 0 c-64 0 -116 -2 -116 -5 0 -3 12 -17 28 -30 l27 -23
3 -229 c3 -204 2 -232 -13 -246 -9 -10 -20 -17 -25 -17 -21 0 -53 71 -134 300
-48 135 -92 249 -97 254 -17 18 -30 -10 -104 -216 -81 -225 -120 -318 -135
-318 -8 0 -60 72 -60 83 0 3 -18 37 -40 77 -31 56 -37 76 -28 82 7 4 17 8 21
8 25 0 96 63 106 92 13 40 1 101 -26 130 -40 45 -71 52 -236 58 -86 3 -157 4
-157 2 0 -2 10 -16 23 -33 21 -29 22 -40 24 -247 1 -213 -5 -268 -29 -260 -23
8 -38 44 -193 478 -13 35 -28 66 -34 68 -5 2 -23 -23 -39 -55z m519 1 c34 -17
59 -66 59 -114 0 -20 -11 -42 -33 -66 -30 -33 -38 -37 -92 -38 l-59 -1 3 110
c2 70 7 112 14 117 20 13 76 9 108 -8z m-467 -199 c20 -49 34 -96 31 -103 -2
-7 0 -10 5 -7 6 3 10 1 10 -4 0 -7 -32 -11 -86 -11 -78 0 -86 2 -80 18 26 69
80 202 82 199 1 -1 18 -42 38 -92z m833 -123 c-44 -2 -81 -1 -84 2 -4 3 20 65
70 178 11 25 13 22 52 -75 l41 -102 -79 -3z"/>
<path d="M4172 6526 c39 -29 47 -74 48 -282 1 -198 0 -201 -24 -237 -14 -20
-22 -38 -18 -41 4 -2 55 -2 114 1 l106 6 -34 32 -34 32 0 97 c0 93 1 96 23 96
25 0 21 5 116 -141 38 -59 72 -109 77 -111 17 -10 164 -20 164 -11 0 5 -28 38
-63 73 -34 36 -81 96 -103 134 l-41 70 50 30 c59 35 77 64 77 121 0 55 -31
102 -83 125 -36 17 -66 20 -217 19 -147 0 -172 -2 -158 -13z m287 -30 c50 -26
66 -105 36 -171 -18 -37 -50 -54 -117 -62 l-48 -6 0 107 c0 59 5 116 10 127
13 23 77 26 119 5z"/>
<path d="M2761 6044 c0 -11 3 -14 6 -6 3 7 2 16 -1 19 -3 4 -6 -2 -5 -13z"/>
<path d="M3290 5658 c0 -39 -4 -58 -9 -50 -6 10 -10 6 -15 -14 -4 -15 -16 -40
-26 -54 -11 -15 -24 -45 -29 -66 -5 -21 -17 -59 -26 -83 -10 -27 -15 -66 -13
-100 3 -52 5 -56 28 -56 16 0 28 8 35 23 5 12 17 22 25 22 9 0 23 9 33 20 11
13 29 20 52 20 l35 0 0 80 0 80 70 0 70 0 0 45 0 45 -70 0 -70 0 0 30 0 30 84
0 84 0 6 35 c4 20 4 40 1 45 -4 6 -62 10 -136 10 l-129 0 0 -62z"/>
<path d="M3725 5693 c-49 -33 -72 -58 -91 -100 -19 -44 -18 -133 2 -161 9 -13
13 -26 10 -29 -3 -3 -11 6 -17 21 -7 14 -16 26 -21 26 -5 0 -6 -5 -3 -10 3 -6
-1 -17 -9 -26 -16 -16 -21 -69 -10 -98 9 -22 52 -20 98 5 33 17 43 19 67 9 16
-7 56 -11 93 -8 50 3 71 10 100 32 171 130 96 366 -116 366 -52 0 -70 -5 -103
-27z m162 -70 c29 -19 53 -69 53 -108 0 -40 -25 -79 -63 -100 -31 -16 -41 -17
-75 -7 -47 14 -71 39 -81 84 -23 103 82 186 166 131z m-193 -262 c15 -16 15
-19 2 -24 -10 -4 -13 -1 -9 9 5 13 -8 19 -30 15 -5 -1 -6 3 -2 9 9 15 20 12
39 -9z"/>
<path d="M3860 5596 c0 -9 7 -16 16 -16 9 0 14 5 12 12 -6 18 -28 21 -28 4z"/>
<path d="M4148 5713 l-28 -4 -2 -102 c-3 -144 -3 -138 5 -177 7 -32 6 -33 -7
-15 -12 15 -15 16 -15 5 0 -8 6 -24 14 -34 8 -11 15 -14 15 -8 0 7 13 -1 29
-17 28 -29 84 -51 127 -51 57 0 138 62 148 113 14 69 16 107 10 197 l-7 99
-43 -1 -44 -2 0 -136 c0 -106 -3 -140 -16 -158 -20 -29 -72 -30 -102 -2 -21
19 -22 30 -22 160 0 154 5 143 -62 133z"/>
<path d="M4565 5680 c-4 -21 -5 -112 -3 -200 l3 -161 45 3 45 3 0 55 c0 30 1
79 3 109 l2 54 38 -59 c21 -33 52 -75 69 -94 16 -19 32 -43 36 -52 5 -14 18
-18 52 -18 l45 0 0 195 0 195 -45 0 -45 0 0 -106 c0 -127 2 -127 -101 18 -65
91 -72 98 -104 98 -31 0 -34 -3 -40 -40z"/>
<path d="M5018 5713 c-16 -4 -18 -21 -18 -176 0 -95 -3 -183 -7 -195 l-6 -24
121 4 c136 3 153 10 207 87 24 34 30 54 33 109 4 89 -21 135 -97 174 -46 24
-64 28 -135 27 -44 -1 -89 -3 -98 -6z m196 -98 c49 -37 59 -112 23 -166 -24
-35 -49 -46 -110 -48 l-38 -1 2 115 2 115 51 0 c28 0 59 -7 70 -15z"/>
<path d="M5530 5673 c-12 -27 -39 -92 -61 -146 -22 -54 -51 -121 -64 -147 -14
-27 -25 -52 -25 -55 0 -3 21 -5 48 -5 45 1 48 2 67 43 l20 42 75 0 75 0 15
-42 c14 -43 15 -43 62 -43 26 0 48 4 48 10 0 5 -30 80 -66 167 -36 87 -70 173
-76 191 -10 29 -15 32 -54 32 -42 0 -44 -2 -64 -47z m70 -103 c0 -6 9 -29 19
-50 l19 -40 -45 0 c-32 0 -44 4 -40 13 2 6 10 29 18 50 12 35 29 50 29 27z"/>
<path d="M6206 5690 c-3 -18 -6 -108 -6 -201 l0 -169 50 0 50 0 0 195 c0 159
-3 195 -14 195 -7 0 -27 3 -43 6 -28 5 -31 3 -37 -26z"/>
<path d="M6502 5694 c-70 -35 -105 -86 -110 -162 -5 -82 14 -123 87 -182 53
-44 180 -40 239 7 111 89 111 237 -1 327 -31 25 -49 31 -100 34 -52 3 -71 -1
-115 -24z m157 -80 c87 -73 49 -207 -59 -207 -69 0 -113 44 -112 113 1 59 10
79 45 101 45 27 89 24 126 -7z"/>
<path d="M6890 5520 l0 -200 48 0 47 0 -3 112 -2 113 22 -27 c13 -15 48 -66
78 -112 54 -84 55 -85 98 -85 l42 -1 2 180 c1 99 2 188 2 198 1 13 -8 18 -41
20 l-41 3 -6 -73 c-3 -40 -7 -88 -9 -106 -2 -33 -4 -32 -80 72 -76 104 -78
106 -117 106 l-40 0 0 -200z"/>
<path d="M5780 5670 l0 -40 60 0 60 0 2 -137 c0 -76 1 -145 2 -153 1 -11 15
-16 49 -18 l47 -3 0 154 c0 174 -3 167 81 167 35 0 37 2 41 35 l4 35 -173 0
-173 0 0 -40z"/>
<path d="M4081 5403 c0 -4 4 -17 9 -28 8 -19 9 -19 9 2 1 12 -3 25 -9 28 -5 3
-10 3 -9 -2z"/>
<path d="M5100 5148 c-76 -11 -192 -48 -244 -79 -49 -28 -39 -36 12 -10 95 48
188 66 347 66 142 0 155 -2 237 -31 270 -96 464 -308 528 -579 11 -44 23 -119
26 -168 4 -48 11 -90 17 -94 17 -10 0 204 -23 285 -61 219 -205 404 -401 515
-162 91 -317 121 -499 95z"/>
<path d="M5103 4947 c-50 -22 -118 -75 -108 -85 2 -3 27 10 54 27 60 39 134
49 212 31 232 -55 355 -276 275 -495 -14 -38 -23 -72 -20 -75 8 -7 60 56 81
99 13 27 18 60 18 131 0 83 -3 102 -28 155 -86 183 -316 284 -484 212z"/>
<path d="M4055 4884 c-38 -42 -72 -82 -74 -87 -2 -6 -16 -21 -31 -33 -15 -13
-47 -49 -71 -81 -24 -32 -52 -66 -61 -77 -9 -10 -24 -34 -33 -52 -8 -18 -22
-39 -29 -47 -8 -8 -34 -51 -58 -96 -54 -104 -58 -110 -91 -158 -15 -22 -38
-82 -54 -143 -15 -58 -30 -107 -34 -110 -23 -16 -49 -199 -49 -342 0 -57 24
-138 41 -138 5 0 9 -8 9 -18 0 -9 9 -23 21 -30 13 -8 18 -19 14 -31 -5 -18 16
-43 48 -54 23 -9 22 -25 -4 -29 -18 -3 -17 -6 15 -40 19 -20 43 -39 54 -43 12
-3 26 -21 33 -43 14 -44 24 -58 33 -43 12 19 43 12 74 -16 42 -39 60 -53 69
-53 5 0 14 -9 21 -20 7 -12 17 -18 22 -15 5 3 28 -3 52 -15 23 -11 57 -20 75
-20 18 0 33 -4 33 -10 0 -6 33 -10 80 -10 47 0 80 -4 80 -10 0 -6 60 -10 160
-10 88 0 160 4 160 9 0 5 19 11 43 14 23 2 57 10 75 18 27 11 34 11 41 0 7
-10 14 -10 41 4 24 13 35 14 40 5 6 -9 15 -8 37 3 36 19 138 24 174 9 15 -6
30 -8 33 -5 3 4 6 -1 6 -11 0 -11 7 -16 18 -14 24 4 31 -71 8 -84 -9 -5 -16
-16 -16 -23 0 -17 16 -20 25 -5 3 5 21 17 40 26 35 16 50 38 39 56 -4 6 -12 1
-19 -12 l-13 -23 -6 21 c-4 12 -5 31 -1 41 8 26 -22 56 -41 40 -9 -7 -14 -8
-14 -1 0 6 6 12 12 14 14 5 8 19 -34 88 -25 41 -13 31 25 -22 15 -20 27 -41
27 -46 0 -6 4 -12 8 -14 5 -1 22 -23 38 -48 44 -65 49 -74 36 -66 -7 4 -12 3
-12 -3 0 -27 19 -14 55 37 22 31 85 119 142 196 l103 138 -127 134 c-69 74
-132 134 -139 134 -7 0 -30 -21 -51 -47 -102 -127 -193 -222 -192 -203 0 8 45
69 100 135 55 66 105 128 111 138 7 15 3 33 -21 81 -32 66 -81 117 -249 259
-51 43 -127 112 -169 153 -53 51 -84 74 -101 74 -23 0 -24 -3 -19 -36 11 -64
46 -117 143 -217 64 -66 93 -102 86 -109 -15 -15 -59 13 -142 94 -88 85 -108
123 -151 285 -16 65 -37 126 -46 135 -22 25 -49 22 -57 -4 -9 -37 -6 -200 5
-243 5 -22 13 -97 17 -167 7 -109 11 -130 29 -150 11 -13 19 -29 17 -36 -1 -7
0 -8 3 -2 2 5 27 -9 54 -32 27 -23 47 -43 44 -46 -2 -3 -11 1 -19 7 -8 7 -21
9 -27 5 -8 -5 -10 -2 -6 9 3 8 0 18 -8 21 -10 3 -12 0 -8 -11 5 -12 2 -15 -10
-10 -9 3 -17 2 -17 -3 0 -6 10 -11 23 -11 50 -3 99 -27 152 -74 22 -20 50 -44
63 -52 12 -8 22 -20 22 -26 0 -6 -13 2 -30 18 -16 16 -30 24 -30 18 0 -6 7
-16 15 -23 8 -7 13 -16 10 -20 -2 -4 10 -7 28 -7 24 1 32 -3 31 -15 -1 -10 4
-14 12 -11 14 5 20 -12 7 -20 -5 -2 -3 -2 4 -1 19 4 67 -42 58 -56 -5 -8 -4
-11 2 -7 6 4 19 -3 29 -14 19 -21 19 -21 -11 -15 -16 3 -61 10 -100 16 -240
33 -524 208 -687 424 -70 93 -116 184 -154 312 -24 79 -27 106 -28 244 -1 133
2 166 22 233 26 91 82 212 127 277 65 93 60 92 -30 -6z m1004 -1780 c-15 -18
-22 -13 -13 10 3 9 10 13 16 10 5 -3 4 -12 -3 -20z m51 -50 c0 -8 -4 -12 -10
-9 -5 3 -10 13 -10 21 0 8 5 12 10 9 6 -3 10 -13 10 -21z"/>
<path d="M4457 4641 c-14 -33 -33 -93 -41 -133 -19 -95 -31 -268 -18 -268 5 0
12 53 15 118 6 113 36 254 66 311 7 12 11 25 8 27 -2 3 -16 -22 -30 -55z"/>
<path d="M4811 4494 c0 -23 6 -57 14 -75 16 -33 16 -33 9 -4 -4 17 -10 50 -14
75 l-7 45 -2 -41z"/>
<path d="M5908 4380 c-22 -13 -44 -74 -68 -187 -10 -51 -27 -107 -36 -125 -20
-40 -193 -218 -211 -218 -28 0 -9 31 73 121 90 97 124 156 124 215 0 28 -4 34
-21 34 -11 0 -30 -12 -42 -27 -43 -54 -184 -186 -297 -278 -111 -91 -160 -148
-190 -223 -11 -27 -10 -35 2 -50 8 -9 59 -69 113 -132 54 -63 102 -119 106
-124 4 -5 107 91 228 213 l220 221 5 53 c3 28 12 120 20 202 23 220 24 309 6
312 -8 2 -23 -2 -32 -7z"/>
<path d="M4665 3610 c3 -5 11 -10 16 -10 6 0 7 5 4 10 -3 6 -11 10 -16 10 -6
0 -7 -4 -4 -10z"/>
<path d="M4825 3450 c-3 -5 -1 -10 4 -10 6 0 11 5 11 10 0 6 -2 10 -4 10 -3 0
-8 -4 -11 -10z"/>
<path d="M5685 3405 c-22 -8 -54 -14 -72 -14 -17 -1 -35 -6 -39 -12 -3 -6 -18
-8 -33 -5 -25 5 -25 5 -3 -6 16 -8 29 -8 45 -1 12 6 49 15 81 22 33 6 64 15
70 21 13 13 2 11 -49 -5z"/>
<path d="M5645 3370 l-20 -9 20 0 c11 0 29 4 40 9 l20 9 -20 0 c-11 0 -29 -4
-40 -9z"/>
<path d="M5494 3339 c-1 -16 -1 -28 0 -27 1 2 7 10 14 19 10 13 10 19 0 27
-10 8 -13 3 -14 -19z"/>
<path d="M5137 3033 c-4 -3 -7 -13 -7 -22 1 -13 3 -13 11 2 11 19 8 33 -4 20z"/>
<path d="M4 95 c0 -55 1 -76 3 -47 2 29 2 74 0 100 -2 26 -3 2 -3 -53z"/>
</g>
</svg>
